<mxfile host="app.diagrams.net" agent="Mozilla/5.0 (Macintosh; Intel Mac OS X 10_15_7) AppleWebKit/605.1.15 (KHTML, like Gecko) Version/17.2.1 Safari/605.1.15" version="24.7.17">
  <diagram name="Page-1" id="SGQSjWxR3BQ6lKkqVnAE">
    <mxGraphModel dx="3051" dy="-232" grid="1" gridSize="10" guides="1" tooltips="1" connect="1" arrows="1" fold="1" page="1" pageScale="1" pageWidth="827" pageHeight="1169" math="0" shadow="0">
      <root>
        <mxCell id="0" />
        <mxCell id="1" parent="0" />
        <mxCell id="CrTR4L89HXgT0LwIEZf6-2" value="" style="edgeStyle=orthogonalEdgeStyle;rounded=0;orthogonalLoop=1;jettySize=auto;html=1;" edge="1" parent="1" source="CrTR4L89HXgT0LwIEZf6-3" target="CrTR4L89HXgT0LwIEZf6-8">
          <mxGeometry relative="1" as="geometry" />
        </mxCell>
        <mxCell id="CrTR4L89HXgT0LwIEZf6-3" value="&lt;font style=&quot;font-size: 12px;&quot;&gt;Start&lt;/font&gt;" style="rounded=1;whiteSpace=wrap;html=1;" vertex="1" parent="1">
          <mxGeometry x="-1145" y="1660" width="130" height="50" as="geometry" />
        </mxCell>
        <mxCell id="CrTR4L89HXgT0LwIEZf6-4" value="" style="edgeStyle=orthogonalEdgeStyle;rounded=0;orthogonalLoop=1;jettySize=auto;html=1;" edge="1" parent="1" source="CrTR4L89HXgT0LwIEZf6-8" target="CrTR4L89HXgT0LwIEZf6-10">
          <mxGeometry relative="1" as="geometry" />
        </mxCell>
        <mxCell id="CrTR4L89HXgT0LwIEZf6-5" value="" style="edgeStyle=orthogonalEdgeStyle;rounded=0;orthogonalLoop=1;jettySize=auto;html=1;" edge="1" parent="1" source="CrTR4L89HXgT0LwIEZf6-8" target="CrTR4L89HXgT0LwIEZf6-12">
          <mxGeometry relative="1" as="geometry">
            <Array as="points">
              <mxPoint x="-1070" y="1845" />
              <mxPoint x="-1130" y="1845" />
            </Array>
          </mxGeometry>
        </mxCell>
        <mxCell id="CrTR4L89HXgT0LwIEZf6-6" style="edgeStyle=orthogonalEdgeStyle;rounded=0;orthogonalLoop=1;jettySize=auto;html=1;" edge="1" parent="1" source="CrTR4L89HXgT0LwIEZf6-8" target="CrTR4L89HXgT0LwIEZf6-14">
          <mxGeometry relative="1" as="geometry">
            <Array as="points">
              <mxPoint x="-1070" y="1845" />
              <mxPoint x="-980" y="1845" />
            </Array>
          </mxGeometry>
        </mxCell>
        <mxCell id="CrTR4L89HXgT0LwIEZf6-7" value="" style="edgeStyle=orthogonalEdgeStyle;rounded=0;orthogonalLoop=1;jettySize=auto;html=1;" edge="1" parent="1" source="CrTR4L89HXgT0LwIEZf6-8" target="CrTR4L89HXgT0LwIEZf6-16">
          <mxGeometry relative="1" as="geometry" />
        </mxCell>
        <mxCell id="CrTR4L89HXgT0LwIEZf6-8" value="Process payment&amp;nbsp;" style="rounded=0;whiteSpace=wrap;html=1;" vertex="1" parent="1">
          <mxGeometry x="-1140" y="1740" width="120" height="60" as="geometry" />
        </mxCell>
        <mxCell id="CrTR4L89HXgT0LwIEZf6-9" style="edgeStyle=orthogonalEdgeStyle;rounded=0;orthogonalLoop=1;jettySize=auto;html=1;entryX=0.5;entryY=0;entryDx=0;entryDy=0;" edge="1" parent="1" source="CrTR4L89HXgT0LwIEZf6-10" target="CrTR4L89HXgT0LwIEZf6-27">
          <mxGeometry relative="1" as="geometry">
            <Array as="points">
              <mxPoint x="-1350" y="2218" />
            </Array>
          </mxGeometry>
        </mxCell>
        <mxCell id="CrTR4L89HXgT0LwIEZf6-10" value="Cash" style="shape=parallelogram;perimeter=parallelogramPerimeter;whiteSpace=wrap;html=1;fixedSize=1;rounded=0;" vertex="1" parent="1">
          <mxGeometry x="-1410" y="1890" width="120" height="60" as="geometry" />
        </mxCell>
        <mxCell id="CrTR4L89HXgT0LwIEZf6-11" style="edgeStyle=orthogonalEdgeStyle;rounded=0;orthogonalLoop=1;jettySize=auto;html=1;entryX=0.5;entryY=0;entryDx=0;entryDy=0;" edge="1" parent="1" source="CrTR4L89HXgT0LwIEZf6-12" target="CrTR4L89HXgT0LwIEZf6-27">
          <mxGeometry relative="1" as="geometry">
            <Array as="points">
              <mxPoint x="-1130" y="2040" />
              <mxPoint x="-1130" y="2040" />
            </Array>
          </mxGeometry>
        </mxCell>
        <mxCell id="CrTR4L89HXgT0LwIEZf6-12" value="Gift Card" style="shape=parallelogram;perimeter=parallelogramPerimeter;whiteSpace=wrap;html=1;fixedSize=1;rounded=0;" vertex="1" parent="1">
          <mxGeometry x="-1190" y="1890" width="120" height="60" as="geometry" />
        </mxCell>
        <mxCell id="CrTR4L89HXgT0LwIEZf6-13" value="" style="edgeStyle=orthogonalEdgeStyle;rounded=0;orthogonalLoop=1;jettySize=auto;html=1;" edge="1" parent="1" source="CrTR4L89HXgT0LwIEZf6-14" target="CrTR4L89HXgT0LwIEZf6-19">
          <mxGeometry relative="1" as="geometry" />
        </mxCell>
        <mxCell id="CrTR4L89HXgT0LwIEZf6-14" value="&lt;span style=&quot;font-size: 13px; text-align: start;&quot;&gt;Credit/debit card&lt;/span&gt;" style="shape=parallelogram;perimeter=parallelogramPerimeter;whiteSpace=wrap;html=1;fixedSize=1;" vertex="1" parent="1">
          <mxGeometry x="-1040" y="1890" width="120" height="60" as="geometry" />
        </mxCell>
        <mxCell id="CrTR4L89HXgT0LwIEZf6-15" value="" style="edgeStyle=orthogonalEdgeStyle;rounded=0;orthogonalLoop=1;jettySize=auto;html=1;" edge="1" parent="1" source="CrTR4L89HXgT0LwIEZf6-16" target="CrTR4L89HXgT0LwIEZf6-29">
          <mxGeometry relative="1" as="geometry" />
        </mxCell>
        <mxCell id="CrTR4L89HXgT0LwIEZf6-16" value="Split the bill" style="shape=parallelogram;perimeter=parallelogramPerimeter;whiteSpace=wrap;html=1;fixedSize=1;rounded=0;" vertex="1" parent="1">
          <mxGeometry x="-760" y="1880" width="120" height="60" as="geometry" />
        </mxCell>
        <mxCell id="CrTR4L89HXgT0LwIEZf6-17" value="" style="edgeStyle=orthogonalEdgeStyle;rounded=0;orthogonalLoop=1;jettySize=auto;html=1;" edge="1" parent="1" source="CrTR4L89HXgT0LwIEZf6-19" target="CrTR4L89HXgT0LwIEZf6-22">
          <mxGeometry relative="1" as="geometry" />
        </mxCell>
        <mxCell id="CrTR4L89HXgT0LwIEZf6-18" value="" style="edgeStyle=orthogonalEdgeStyle;rounded=0;orthogonalLoop=1;jettySize=auto;html=1;exitX=0.5;exitY=1;exitDx=0;exitDy=0;" edge="1" parent="1" source="CrTR4L89HXgT0LwIEZf6-19" target="CrTR4L89HXgT0LwIEZf6-27">
          <mxGeometry relative="1" as="geometry">
            <Array as="points">
              <mxPoint x="-980" y="2218" />
            </Array>
          </mxGeometry>
        </mxCell>
        <mxCell id="CrTR4L89HXgT0LwIEZf6-19" value="&lt;span style=&quot;text-align: start;&quot;&gt;&lt;font style=&quot;font-size: 12px;&quot;&gt;Is the card valid?&lt;/font&gt;&lt;/span&gt;" style="rhombus;whiteSpace=wrap;html=1;" vertex="1" parent="1">
          <mxGeometry x="-1030" y="2020" width="100" height="100" as="geometry" />
        </mxCell>
        <mxCell id="CrTR4L89HXgT0LwIEZf6-22" value="error, prompt for another method" style="whiteSpace=wrap;html=1;" vertex="1" parent="1">
          <mxGeometry x="-890" y="2040" width="100" height="60" as="geometry" />
        </mxCell>
        <mxCell id="CrTR4L89HXgT0LwIEZf6-23" value="No" style="text;html=1;align=center;verticalAlign=middle;resizable=0;points=[];autosize=1;strokeColor=none;fillColor=none;" vertex="1" parent="1">
          <mxGeometry x="-940" y="2040" width="40" height="30" as="geometry" />
        </mxCell>
        <mxCell id="CrTR4L89HXgT0LwIEZf6-24" value="Yes" style="text;html=1;align=center;verticalAlign=middle;resizable=0;points=[];autosize=1;strokeColor=none;fillColor=none;" vertex="1" parent="1">
          <mxGeometry x="-1030" y="2120" width="40" height="30" as="geometry" />
        </mxCell>
        <mxCell id="CrTR4L89HXgT0LwIEZf6-25" value="" style="edgeStyle=orthogonalEdgeStyle;rounded=0;orthogonalLoop=1;jettySize=auto;html=1;" edge="1" parent="1" source="CrTR4L89HXgT0LwIEZf6-27" target="CrTR4L89HXgT0LwIEZf6-31">
          <mxGeometry relative="1" as="geometry" />
        </mxCell>
        <mxCell id="CrTR4L89HXgT0LwIEZf6-48" value="" style="edgeStyle=orthogonalEdgeStyle;rounded=0;orthogonalLoop=1;jettySize=auto;html=1;" edge="1" parent="1" source="CrTR4L89HXgT0LwIEZf6-27" target="CrTR4L89HXgT0LwIEZf6-45">
          <mxGeometry relative="1" as="geometry" />
        </mxCell>
        <mxCell id="CrTR4L89HXgT0LwIEZf6-27" value="&lt;span style=&quot;font-style: normal; font-variant-caps: normal; letter-spacing: normal; orphans: auto; text-align: start; text-indent: 0px; text-transform: none; white-space: normal; widows: auto; word-spacing: 0px; -webkit-text-stroke-width: 0px; text-decoration: none; caret-color: rgb(0, 0, 0); color: rgb(0, 0, 0);&quot;&gt;Add Tip?&lt;/span&gt;" style="rhombus;whiteSpace=wrap;html=1;" vertex="1" parent="1">
          <mxGeometry x="-1170" y="2218" width="80" height="80" as="geometry" />
        </mxCell>
        <mxCell id="CrTR4L89HXgT0LwIEZf6-43" value="" style="edgeStyle=orthogonalEdgeStyle;rounded=0;orthogonalLoop=1;jettySize=auto;html=1;entryX=1;entryY=0.5;entryDx=0;entryDy=0;" edge="1" parent="1" source="CrTR4L89HXgT0LwIEZf6-29" target="CrTR4L89HXgT0LwIEZf6-27">
          <mxGeometry relative="1" as="geometry">
            <mxPoint x="-660" y="2110" as="targetPoint" />
            <Array as="points">
              <mxPoint x="-700" y="2258" />
            </Array>
          </mxGeometry>
        </mxCell>
        <mxCell id="CrTR4L89HXgT0LwIEZf6-29" value="User Chooses a combination" style="whiteSpace=wrap;html=1;rounded=0;" vertex="1" parent="1">
          <mxGeometry x="-760" y="1980" width="120" height="60" as="geometry" />
        </mxCell>
        <mxCell id="CrTR4L89HXgT0LwIEZf6-49" style="edgeStyle=orthogonalEdgeStyle;rounded=0;orthogonalLoop=1;jettySize=auto;html=1;entryX=0;entryY=0.5;entryDx=0;entryDy=0;" edge="1" parent="1" source="CrTR4L89HXgT0LwIEZf6-31" target="CrTR4L89HXgT0LwIEZf6-45">
          <mxGeometry relative="1" as="geometry">
            <Array as="points">
              <mxPoint x="-1290" y="2400" />
            </Array>
          </mxGeometry>
        </mxCell>
        <mxCell id="CrTR4L89HXgT0LwIEZf6-31" value="Tip Amount" style="whiteSpace=wrap;html=1;" vertex="1" parent="1">
          <mxGeometry x="-1333" y="2233" width="100" height="50" as="geometry" />
        </mxCell>
        <mxCell id="CrTR4L89HXgT0LwIEZf6-32" value="Yes" style="text;html=1;align=center;verticalAlign=middle;resizable=0;points=[];autosize=1;strokeColor=none;fillColor=none;" vertex="1" parent="1">
          <mxGeometry x="-1200" y="2226" width="40" height="30" as="geometry" />
        </mxCell>
        <mxCell id="CrTR4L89HXgT0LwIEZf6-39" value="No" style="text;html=1;align=center;verticalAlign=middle;resizable=0;points=[];autosize=1;strokeColor=none;fillColor=none;" vertex="1" parent="1">
          <mxGeometry x="-1130" y="2283" width="40" height="30" as="geometry" />
        </mxCell>
        <mxCell id="CrTR4L89HXgT0LwIEZf6-45" value="End" style="rounded=1;whiteSpace=wrap;html=1;" vertex="1" parent="1">
          <mxGeometry x="-1190" y="2370" width="120" height="60" as="geometry" />
        </mxCell>
      </root>
    </mxGraphModel>
  </diagram>
</mxfile>
